<svg id="Layer_1" data-name="Layer 1" xmlns="http://www.w3.org/2000/svg" viewBox="0 0 32 35"><defs>
<style>.cls-1{fill:#232528;}.cls-2{fill:#f7931e;}@media (prefers-color-scheme: dark) {
      .cls-1 {
        fill: #eee;
      }
    }
</style></defs><title>fav</title><path class="cls-1" d="M21.67,11.67V14a1.22,1.22,0,1,1-2.42,0c0-.73,0-1.46,0-2.19,0,0,0,0,0-.09H12v1c0,.48,0,1,0,1.44a1.21,1.21,0,1,1-2.41,0c0-.78,0-1.56,0-2.36a1.17,1.17,0,0,0-.26,0H7a1.19,1.19,0,0,0-1.27,1.1c-.23,2-.44,3.95-.67,5.93l-.87,7.85c-.11,1-.23,2-.33,3A1.24,1.24,0,0,0,5.22,31H19.14a1.2,1.2,0,0,1,1.24,1.61,1.18,1.18,0,0,1-1,.8H5.11a3.56,3.56,0,0,1-3.67-3,7.57,7.57,0,0,1,.05-1.84q.63-5.76,1.27-11.5c.18-1.55.35-3.1.53-4.65a3.61,3.61,0,0,1,3.5-3.16c.91,0,1.82,0,2.77,0,0-.42,0-.82,0-1.21a6.05,6.05,0,0,1,12.1-.12V9.25c.87,0,1.71,0,2.55,0a4.92,4.92,0,0,1,1.61.33,3.38,3.38,0,0,1,2.11,2.83c.35,2.9.66,5.81,1,8.71a1.22,1.22,0,1,1-2.41.23c-.31-2.78-.61-5.56-.93-8.34-.11-1-.52-1.35-1.54-1.35ZM12,9.23h7.24V8A3.63,3.63,0,0,0,12.94,5.6,4.43,4.43,0,0,0,12,9.23Z"/><path class="cls-2" d="M24.09,29.82H21.68a1.15,1.15,0,0,1-1.09-.68,1.12,1.12,0,0,1,.11-1.24,1.19,1.19,0,0,1,1-.5c.78,0,1.56,0,2.38,0,0-.83,0-1.63,0-2.43a1.19,1.19,0,0,1,1.68-1.09A1.15,1.15,0,0,1,26.51,25c0,.77,0,1.54,0,2.31l0,.08h2.08a3.09,3.09,0,0,1,.53,0A1.21,1.21,0,0,1,29,29.82H26.51v.76c0,.56,0,1.13,0,1.7a1.21,1.21,0,0,1-2.41,0C24.08,31.47,24.09,30.66,24.09,29.82Z"/><path class="cls-1" d="M15.05,27.62A9.34,9.34,0,0,1,9.6,26.16a5.67,5.67,0,0,1-2.45-3.74,1,1,0,1,1,2-.23,3.7,3.7,0,0,0,1.64,2.36c1.89,1.28,5.1,1.41,9.27.36a1,1,0,0,1,.49,1.94A22.92,22.92,0,0,1,15.05,27.62Z"/></svg>